<svg width="1523" height="588" viewBox="0 0 1523 588" fill="none" xmlns="http://www.w3.org/2000/svg">
<path d="M149.988 466.216C59.2583 442.768 10.8586 353.484 0 321.57V0.197266H691.5H1523V106.688C1302.61 232.392 842.044 496.111 762.897 545.351C683.75 594.59 620.528 591.269 598.811 583.453L149.988 466.216Z" fill="url(#paint0_linear_15_13)"/>
<path opacity="0.32" d="M598.123 240.13C619.733 219.829 635.801 193.998 644.711 165.233L682.471 0H0.470703V168.086L104.319 286.509C123.937 308.871 148.896 325.494 176.687 334.708C204.477 343.922 234.122 345.403 262.641 339.002L521.601 280.885C550.122 274.487 576.513 260.431 598.123 240.13Z" fill="#BADAF5"/>
<path opacity="0.17" d="M700.257 454.619C705.072 478.003 715.98 499.713 731.885 517.567L757.986 546.858L1329.47 216.113L1274.81 151.61L1217.87 87.7064C1201.96 69.8492 1181.62 56.4798 1158.88 48.9426C1136.14 41.4054 1111.81 39.9661 1088.34 44.7694L875.214 88.3535C851.742 93.1524 829.951 104.023 812.033 119.874C794.115 135.724 780.7 155.995 773.138 178.649L704.45 384.347C696.887 406.998 695.441 431.234 700.257 454.619Z" fill="#E4EEF9"/>
<defs>
<linearGradient id="paint0_linear_15_13" x1="-201.029" y1="993.742" x2="1934.63" y2="-438.399" gradientUnits="userSpaceOnUse">
<stop offset="0.280891" stop-color="#D7EDFD" stop-opacity="0.93038"/>
<stop offset="0.635284" stop-color="#AEDAFF"/>
</linearGradient>
</defs>
</svg>
